<?xml version="1.0" encoding="UTF-8"?><svg id="Layer_2" xmlns="http://www.w3.org/2000/svg" viewBox="0 0 558.56 280.73"><defs><style>.cls-1{fill:#fff;}.cls-2{fill:#f23737;}</style></defs><g id="Layer_1-2"><g><path class="cls-2" d="M341.84,1.24h26.23c-1.92,2.45-3.74,4.43-5.15,6.68-1.98,3.15-4.52,4.37-8.26,3.99-3.54-.35-7.14-.14-10.71-.06-1.63,.04-2.2-.55-2.13-2.17,.1-2.72,.03-5.44,.03-8.44Z"/><path class="cls-1" d="M436.72,76.55h-12.71c-.05-.87-.14-1.67-.14-2.46-.01-23.3,.04-46.6-.09-69.9-.01-2.69,.89-3.13,3.27-3.1,8.82,.12,17.66,.32,26.47-.02,12.44-.48,22.92,9.3,24.19,22.46,.78,8.12-1.6,15.3-7.03,21.39-1,1.12-1.04,1.98-.56,3.32,3.06,8.62,6.03,17.27,9.01,25.91,.24,.69,.4,1.4,.71,2.47-4.45,0-8.66,.07-12.86-.08-.57-.02-1.35-1.08-1.61-1.81-2.32-6.5-4.67-12.99-6.73-19.57-.8-2.58-1.97-3.51-4.7-3.37-4.73,.24-9.49,.06-14.23,.08-.9,0-1.79,.09-2.98,.16,0,4.25,0,8.3,0,12.36s0,7.95,0,12.17Zm.02-64.58c0,9.41,0,18.54,0,27.67,0,1.69,1.2,1.51,2.26,1.51,4.99,.01,9.97-.03,14.96,.02,3.46,.04,6.15-1.35,7.96-4.25,3.76-6.04,3.93-12.42,1.17-18.83-1.31-3.04-3.45-5.87-7.04-6.04-6.28-.3-12.59-.08-19.31-.08Z"/><path class="cls-1" d="M.11,63.73c3.24-2.72,6.36-5.34,9.48-7.96,2.07,1.68,3.94,3.44,6.04,4.85,6.47,4.34,13.62,5.09,21.05,3.34,3.25-.77,5.76-2.62,6.32-6.26,.55-3.56-.81-6.7-4.35-8.47-3.62-1.81-7.49-3.14-11.3-4.56-5.14-1.91-10.48-3.37-15.44-5.64C4.65,35.7-.42,30.49,.03,21.73,.49,12.57,4.8,5.89,13.31,2.31c13.5-5.67,33.02-.48,42.01,10.99,.14,.18,.19,.44,.38,.92-3.11,2.62-6.27,5.28-9.55,8.06-3.74-4.01-7.92-7.09-13.16-8.38-5.19-1.28-10.4-1.47-15.46,.55-5.43,2.17-6.53,9.32-1.78,12.68,2.6,1.84,5.7,3.04,8.69,4.24,6.17,2.48,12.41,4.76,18.62,7.12,.16,.06,.3,.14,.45,.21,7.25,3.79,13.15,8.79,12.44,17.83-.71,9.14-5.73,15.6-14.26,19.11-13.46,5.53-32.89,0-41.59-11.92Z"/><path class="cls-1" d="M316.05,14.19c-3.14,2.64-6.3,5.3-9.63,8.09-6.38-6.95-14.15-10.21-23.5-9.04-6.64,.83-12.08,4.02-16.4,9.11-8.86,10.44-7.8,25.84,2.41,35.62,8.14,7.8,24.83,11.17,37.53-2.31,3.2,2.68,6.42,5.36,9.63,8.05-8.48,11.08-24.9,17.21-40.84,12.38-17.44-5.28-26.81-20.89-27.62-35.15-1.03-18,11.22-34.9,28.75-39.58,16.4-4.38,32.36,2.89,39.66,12.84Z"/><path class="cls-1" d="M102.37,52.01c0,3.98,0,7.79,0,11.59,0,3.66-.03,7.32,.02,10.98,.01,1.25-.17,2.09-1.72,2.07-3.57-.06-7.14-.02-11.02-.02-.06-1.12-.16-2.08-.16-3.04,0-23.05,0-46.11,0-69.16,0-3.29,0-3.3,3.2-3.3,8.74,0,17.49,0,26.23,0,11.9,0,20.81,6.96,23.7,18.53,2.92,11.68-1.82,23.71-11.51,29.2-3.55,2.01-7.34,3.06-11.45,3-4.75-.06-9.49-.02-14.24,0-.9,0-1.8,.09-3.04,.15Zm.29-39.99c-.1,.56-.26,1.03-.26,1.51-.01,8.56,.02,17.12-.02,25.67,0,1.6,.75,1.96,2.15,1.95,4.91-.04,9.81-.1,14.72,.01,3.69,.09,6.38-1.46,8.39-4.43,4.05-5.97,3.86-15.77-.72-21.33-1.23-1.49-3.27-3.13-5.03-3.24-6.36-.39-12.75-.15-19.22-.15Z"/><path class="cls-1" d="M526.12,65.91c6.2,0,12.01,0,17.82,0,4.16,0,8.32,.04,12.47-.02,1.6-.02,2.21,.51,2.14,2.18-.13,2.73-.03,5.46-.03,8.39h-45.13V1.37h45.14c0,3.05,.03,6.09-.01,9.13-.03,1.74-1.44,1.31-2.41,1.31-8.82,.03-17.64,.01-26.46,.02-3.52,0-3.51,.01-3.51,3.52,0,15.72,0,31.44,0,47.16,0,.99,0,1.97,0,3.39Z"/><path class="cls-1" d="M221.04,65.92c0,3.09-.08,5.75,.03,8.4,.07,1.89-.72,2.39-2.52,2.37-7.82-.08-15.64-.03-23.47-.04-5.66,0-11.32-.06-16.98,.03-1.75,.03-2.28-.58-2.28-2.29,.04-23.71,.04-47.41,0-71.12,0-1.61,.55-2.16,2.17-2.15,13.56,.05,27.13,.05,40.69,0,1.71,0,2.44,.54,2.37,2.27-.07,1.83-.1,3.66,.02,5.49,.14,2.19-.57,3.05-2.94,3.01-8.82-.14-17.64,0-26.46-.09-2.11-.02-3.03,.31-3.01,2.82,.12,16.37,.07,32.74-.02,49.11-.01,2.12,1.02,2.22,2.62,2.21,8.98-.04,17.97-.02,26.95-.02,.82,0,1.63,0,2.83,0Z"/><path class="cls-1" d="M374.23,76.63c-4.09,0-7.81,0-11.54,0-1.74,0-1.43-1.26-1.44-2.29-.02-8.32-.02-16.63-.02-24.95,0-6.99-.09-13.97,.07-20.96,.04-1.51,.66-3.26,1.58-4.45,5.61-7.21,11.36-14.32,17.16-21.39,.63-.76,1.88-1.34,2.88-1.4,2.82-.19,5.66,0,8.48-.09,1.66-.06,2.2,.61,2.14,2.2-.09,2.08-.1,4.16,0,6.24,.09,1.74-.59,2.33-2.32,2.3-4.66-.08-9.32,.12-13.98-.07-2.44-.1-3.08,.68-3.07,3.07,.09,19.63,.04,39.25,.04,58.88,0,.82,0,1.64,0,2.9Z"/><path class="cls-2" d="M549.37,44.3c-6.03,0-11.73,.04-17.43-.07-.48,0-1.31-.99-1.34-1.55-.15-2.48-.06-4.97-.09-7.46-.02-1.32,.69-1.68,1.89-1.67,4.98,.03,9.96-.05,14.94,.08,.69,.02,1.91,.93,1.95,1.49,.2,2.95,.09,5.92,.09,9.17Z"/><path class="cls-2" d="M211.39,44.18h-18.34c0-3.1-.09-6.06,.08-9.01,.03-.56,1.04-1.51,1.62-1.53,4.97-.12,9.95-.13,14.93,0,.58,.01,1.6,.94,1.63,1.49,.16,2.95,.08,5.92,.08,9.06Z"/><path class="cls-1" d="M413.23,102.65c4.2,0,8.19-.07,12.18,.07,.68,.02,1.57,.84,1.94,1.52,8.1,14.99,16.15,30.02,24.2,45.04,.62,1.15,1.25,2.3,2.36,3.37,.04-.85,.12-1.71,.12-2.56,.01-14.9,.06-29.79-.04-44.69-.01-2.18,.55-2.94,2.78-2.81,3.23,.18,6.48,.05,9.99,.05,.07,1.16,.17,2.13,.17,3.09,.01,23.05,0,46.11,.01,69.16q0,3.26-3.25,3.26c-2.58,0-5.17-.09-7.74,.03-1.69,.08-2.66-.41-3.51-2-8.38-15.78-16.87-31.51-25.32-47.26-.19-.36-.41-.71-1-1.74v50.78h-12.9V102.65Z"/><path class="cls-1" d="M377.08,115.57c-3.25,2.73-6.41,5.39-9.67,8.13-1.31-1.17-2.46-2.34-3.75-3.35-8.11-6.34-17.12-7.77-26.51-3.73-9.99,4.3-15.43,12.33-15.68,23.21-.24,10.42,4.43,18.56,13.77,23.37,9.74,5.02,19.25,4.16,28.12-2.47,1.45-1.08,2.18-2.33,2.08-4.22-.14-2.65-.18-5.33,0-7.98,.14-2.16-.5-2.93-2.76-2.85-4.98,.16-9.97,.05-15.41,.05,0-3.36-.04-6.55,.07-9.74,.01-.33,.94-.9,1.44-.9,9.32-.05,18.64-.07,27.96,.03,.55,0,1.55,1,1.55,1.55,.1,8.65,.14,17.3,0,25.94-.02,1.16-.93,2.47-1.75,3.42-16.55,18.93-46.57,17.24-61.02-3.38-11.74-16.76-8.52-39.51,7.42-52.46,15.71-12.75,38.57-11.22,52.5,3.53,.51,.54,.98,1.12,1.63,1.85Z"/><path class="cls-1" d="M6.6,102.53c11.72,.83,23.42-1.64,34.68,3.12,16.8,7.1,26.18,24.01,22.83,41.8-3.25,17.28-18.59,30.29-36.33,30.66-6.98,.15-13.97,.02-21.18,.02V102.53Zm12.82,64.48c11.15,1.73,21.41-2.41,27.57-11.28,6.39-9.19,6.31-21.65,0-30.7-5.86-8.4-16.23-13.19-27.57-11.27v53.25Z"/><path class="cls-1" d="M173.05,165.23c3.23-2.71,6.39-5.36,9-7.55,4.23,2.54,7.92,5.23,12,7.06,4.91,2.21,10.24,1.98,15.44,.75,3.38-.8,5.93-2.64,6.45-6.4,.54-3.86-1.01-6.83-4.43-8.41-4.13-1.91-8.48-3.34-12.73-5.02-5.7-2.26-11.71-3.99-17.02-6.96-8.36-4.68-10.89-13.17-7.59-22.17,3.16-8.61,9.62-13.09,18.41-14.43,13.34-2.03,24.81,1.83,34.42,11.28,.35,.35,.67,.74,.99,1.12,.21,.25,.38,.54,.79,1.12-3.16,2.66-6.3,5.32-9.16,7.73-3.58-2.35-6.74-4.96-10.33-6.67-6-2.85-12.37-3.05-18.69-.77-2.81,1.02-4.4,3.06-4.73,6.14-.34,3.16,.62,5.7,3.47,7.09,3.72,1.81,7.58,3.35,11.41,4.95,6.12,2.56,12.58,4.52,18.33,7.74,13.83,7.76,11.56,21.15,3.9,29.68-4.02,4.48-9.28,6.65-15.16,7.36-13.21,1.59-24.43-2.47-33.63-12.07-.39-.41-.68-.91-1.16-1.56Z"/><path class="cls-1" d="M143.16,167.42c0,3.32,.03,6.38-.01,9.43-.03,1.77-1.46,1.27-2.42,1.28-10.99,.03-21.98,.02-32.97,.02-3.16,0-6.31,0-9.69,0-.08-.9-.2-1.61-.2-2.33-.01-23.46,.02-46.93-.05-70.39,0-2.14,.5-2.86,2.76-2.84,13.32,.1,26.64,.09,39.96,0,2.05-.01,2.88,.56,2.7,2.66-.15,1.73-.17,3.51,0,5.24,.25,2.4-.81,2.91-3.01,2.88-8.66-.1-17.31-.04-25.97-.04-3.47,0-3.49,0-3.49,3.56,0,15.89,.06,31.78-.05,47.68-.02,2.41,.84,2.91,3.02,2.89,8.9-.09,17.8-.04,26.71-.04,.81,0,1.62,0,2.71,0Z"/><path class="cls-1" d="M275.26,126.62c0,1.28,0,2.1,0,2.91,0,15.2-.04,30.41,.06,45.61,.02,2.38-.6,3.22-3.06,3.05-3.13-.22-6.29-.05-9.89-.05,0-2.84,0-5.46,0-8.09,.01-8.8,0-17.6,.06-26.41,0-.86,.18-1.9,.68-2.54,3.63-4.64,7.36-9.21,11.07-13.79,.14-.17,.38-.25,1.08-.7Z"/><path class="cls-2" d="M262.58,127.88v-25.23c3.86,0,7.51-.07,11.15,.08,.53,.02,1.41,1.05,1.45,1.66,.16,2.48,.09,4.98,.04,7.47-.01,.55-.14,1.21-.47,1.63-3.85,4.87-7.75,9.71-11.64,14.55l-.54-.16Z"/><path class="cls-2" d="M133.36,135.04v10.53h-18.14c0-3.15-.05-6.27,.06-9.38,.01-.39,.8-1.09,1.24-1.09,5.55-.08,11.1-.05,16.84-.05Z"/><path class="cls-1" d="M435.41,203.1c21.51,.08,38.75,17.51,38.65,39.05-.11,21.5-17.55,38.69-39.13,38.56-21.49-.12-38.68-17.6-38.52-39.17,.16-21.38,17.56-38.53,39-38.44Zm25.76,39.19c.4-14.06-11.09-25.92-25.49-26.3-13.84-.37-25.91,10.95-26.29,24.67-.41,14.68,10.48,26.7,24.53,27.08,15.13,.41,26.83-10.52,27.25-25.45Z"/><path class="cls-1" d="M258.91,204.54c.3-.15,.44-.28,.59-.28,8.64,.14,17.41-.61,25.89,.65,15.83,2.36,29.68,14.76,31.52,33,1.75,17.37-8.01,33.04-24.28,39.14-4.74,1.78-9.58,2.67-14.63,2.63-6.3-.05-12.61-.01-19.09-.01v-75.12Zm12.73,37.13c0,7.4-.03,14.8,0,22.19,.03,6.03-.81,5.1,5.19,5,11.21-.19,19.74-5.19,24.58-15.36,4.77-10.03,3.55-19.8-3.34-28.55-6.02-7.64-14.28-10.41-23.8-10.17-2.06,.05-2.7,.63-2.68,2.69,.1,8.06,.04,16.13,.04,24.19Z"/><path class="cls-1" d="M6.61,266.85c3.39-2.83,6.5-5.44,9.19-7.69,4.03,2.47,7.58,5.28,11.61,6.96,5.92,2.46,12.22,2.63,18.2-.11,4.84-2.21,5.85-8.97,1.63-12.21-2.83-2.17-6.31-3.63-9.68-4.93-5.96-2.3-12.17-3.99-18.07-6.43-2.99-1.24-5.82-3.27-8.22-5.49-8.03-7.44-4.78-21.94,2.68-28.02,3.79-3.09,8.14-4.74,12.92-5.48,13.24-2.06,28.21,3.61,35.6,13.69-3.19,2.68-6.4,5.37-9.7,8.14-3.75-4.07-7.95-7.08-13.2-8.39-4.94-1.23-9.88-1.32-14.76,.29-2.93,.97-4.77,2.91-5.21,6.06-.47,3.33,.58,6.09,3.62,7.52,4.26,2.02,8.72,3.65,13.07,5.47,5.51,2.3,11.33,4.09,16.45,7.06,12.31,7.14,13.37,21.38,2.74,30.94-6.43,5.78-14.2,6.96-22.38,6.34-10.63-.8-19.35-5.48-26.51-13.74Z"/><path class="cls-1" d="M209.95,204.17c3.91,0,7.56,.02,11.21,0,1.69-.01,1.52,1.16,1.52,2.24,0,7.07,0,14.15,0,21.22,0,9.4-.38,18.83,.09,28.21,.71,13.9-10.34,23.59-22.67,24.72-9.68,.89-18.13-1.67-24.49-9.49-3.84-4.72-4.79-10.24-4.76-16.14,.08-16.05,.03-32.1,.05-48.15,0-.74,.12-1.47,.2-2.4h12.78c0,4.63,0,9.19,0,13.74,0,13.06,.1,26.12-.06,39.17-.11,8.54,8.59,12.97,16.4,11.23,5.57-1.24,9.69-5.35,9.62-11.85-.19-16.8-.04-33.6-.02-50.4,0-.57,.07-1.14,.14-2.07Z"/><path class="cls-1" d="M122.02,279.65c-4.07,0-7.79,0-11.51,0-1.74,0-1.44-1.29-1.44-2.3-.02-6.74,0-13.48,0-20.21,0-8.24-.06-16.47,.06-24.7,.02-1.29,.53-2.8,1.32-3.81,6.11-7.78,12.34-15.47,18.55-23.16,.4-.49,.97-1.15,1.49-1.17,3.24-.12,6.49-.14,9.73,0,.42,.02,1.1,1.15,1.14,1.8,.14,2.15,.01,4.32,.06,6.48,.03,1.67-.63,2.35-2.38,2.31-4.74-.09-9.49-.03-14.23-.01-.81,0-1.62,.08-2.77,.13v64.66Z"/><path class="cls-1" d="M363.08,226.93v52.58h-12.83c0-2.66,0-5.28,0-7.89,0-9.06-.07-18.11,.06-27.17,.02-1.44,.65-3.09,1.53-4.25,3.44-4.56,7.1-8.97,10.68-13.44l.57,.16Z"/><path class="cls-2" d="M116.85,204.53c-2.71,3.37-5.15,6.51-7.74,9.52-.44,.52-1.47,.75-2.23,.76-4.99,.07-9.99-.02-14.98,.07-1.73,.03-2.38-.56-2.29-2.3,.12-2.16,.08-4.33,.01-6.49-.04-1.34,.38-1.96,1.84-1.95,8.07,.05,16.15,.03,24.22,.05,.23,0,.45,.13,1.16,.34Z"/><path class="cls-2" d="M350.46,204.26h12.62c-.14,4,1.32,7.93-2.01,11.49-3.12,3.32-5.77,7.08-8.63,10.63-.49,.61-1.05,1.17-1.98,2.2v-24.31Z"/><path class="cls-2" d="M434.79,249.8c-4.6-.04-8.34-3.92-8.22-8.53,.12-4.49,3.95-8.17,8.42-8.09,4.6,.08,8.36,3.98,8.25,8.54-.11,4.44-3.96,8.12-8.45,8.09Z"/></g></g></svg>