<?xml version="1.0" encoding="UTF-8"?><svg id="Layer_2" xmlns="http://www.w3.org/2000/svg" viewBox="0 0 179.57 179.57"><defs><style>.cls-1{fill:#f23737;}.cls-2{fill:#484848;}</style></defs><g id="Layer_1-2"><g><g><path class="cls-2" d="M139.95,136.52c2.3-5.67,4.82-11.25,7.03-16.96,20.89-53.94-17.72-83.74-17.72-83.74-9.56-7.03-20.32-11.14-32.01-12.93-11.18-1.72-21.99-.3-32.45,3.92-9.61,3.87-17.81,9.89-25.44,16.79-3.83,3.46-7.61,7.01-11.66,10.2-4.68,3.68-10.01,6.29-15.74,8.01-3.34,1-5.19,4.08-4.38,7.22,.81,3.15,3.86,4.91,7.29,4.18,.77-.17,1.54-.38,2.29-.62,9.98-3.3,18.39-9.08,25.95-16.26,0,0,30.75-30.18,64.02-16.76l.08,.03c5.58,2.07,10.61,5.05,14.98,8.71,11.23,8.87,15.59,19.57,17.28,28.8,.82,3.9,1.19,7.92,1.07,12,.03,1.93,.01,3.63,.04,5.03,.19,10.85-9.98,33.63-9.98,33.63-1.63,4.12-2.87,8.46-3.7,12.82-.99,5.2,.13,10.36,1.7,15.38,1.32,4.22,3.12,8.21,5.32,12,3.48-1.97,6.84-4.16,10.03-6.58-1.22-2.45-2.39-4.92-3.41-7.45-2.3-5.68-2.95-11.54-.58-17.41Z"/><path class="cls-2" d="M140.53,89.1c.12-4.08-.25-8.1-1.07-12,.82,4.47,1.02,8.59,1.07,12Z"/><path class="cls-2" d="M38.03,87.32c.03-4.28,.59-8.63,1.75-12.96,.46-1.7,.99-3.36,1.61-4.98-1.08,1.17-2.2,2.3-3.4,3.33-6.03,5.18-13.02,8.86-20.29,11.97-3.8,1.62-12.08,4.28-17.71,6.24,.05,4.25,.41,8.45,1.05,12.59,4.47-1.45,15.41-5.46,19.75-7.26,6.06-2.52,11.85-5.42,17.22-8.92Z"/><path class="cls-2" d="M119.09,164.7c-3.96-9.94-3.59-20.01,0-29.9,1.01-2.78,2.22-5.49,3.47-8.18-4.83,4.11-10.39,7.31-16.38,9.4-.63,2.5-1.09,5.05-1.32,7.67-.69,8.01-.3,15.88,2.43,23.53,1.26,3.54,3.03,6.66,5.21,9.42,4.22-1.11,8.34-2.52,12.33-4.21-2.46-2.15-4.5-4.66-5.73-7.74Z"/><path class="cls-2" d="M42.86,109.32c-1.7-3.64-2.98-7.49-3.8-11.47-1.65,.97-3.35,1.88-5.11,2.71-7.64,3.61-15.53,6.71-23.34,9.94-2.46,1.02-4.95,1.97-7.45,2.92,1.02,3.73,2.28,7.38,3.77,10.94,8.4-3.18,16.81-6.36,25.11-9.78,3.73-1.53,7.33-3.29,10.81-5.26Z"/><path class="cls-2" d="M79.7,137.96c-1.22-.23-2.45-.5-3.67-.83-3.82-1.02-7.42-2.47-10.77-4.25-11.64,6.89-23.76,12.87-36.18,18.26-1.14,.49-2.27,.98-3.41,1.47,3.02,3.09,6.28,5.97,9.75,8.62,1.18-.51,2.36-1.02,3.53-1.54,14.09-6.28,27.78-13.35,40.75-21.75Z"/><path class="cls-2" d="M28.12,39.58c1.07-.99,2.21-1.89,3.3-2.86,7.33-6.52,14.88-12.74,23.48-17.58,7.49-4.21,15.46-7,23.99-8.12,9.46-1.25,18.77-.32,28.01,1.81,10.35,2.38,19.73,6.77,28.14,13.25,10.31,7.95,18.2,17.9,24.19,29.4,1.81,3.47,3.37,7.07,5.14,10.57,1.23,2.41,3.43,3.45,5.9,2.99,2.68-.5,4.66-2.36,4.84-5,.09-1.36-.22-2.85-.74-4.11-.39-.94-.71-1.88-.99-2.82-10.05-25.64-31.72-46.35-60.37-54.02C76.89-6.6,40.01,7.2,18.56,35.11c.02,1.42,.55,2.85,1.54,3.93,2.06,2.26,5.86,2.52,8.01,.54Z"/><path class="cls-2" d="M47.66,117.52c-9.81,5.85-20.07,10.91-30.59,15.47-1.6,.69-3.21,1.36-4.83,2.02,2.03,3.48,4.29,6.83,6.78,10.01,12.7-5.33,25.03-11.4,36.79-18.58-3.07-2.65-5.8-5.65-8.14-8.92Z"/><path class="cls-2" d="M179.56,88.27c-.16-1.09-.38-2.17-.66-3.22-.73-2.71-3.65-4.12-6.24-3.63-3.01,.57-4.79,2.57-4.84,5.63-.03,1.62,.17,3.24,.28,4.85,.36,5.48-.26,10.89-1.16,16.28-1.19,7.1-3.11,14.02-5.77,20.69-2.25,5.64-4.93,11.1-7.38,16.67-.73,1.66-1.57,3.35-1.08,5.28,.2,.76,.53,1.44,.96,2.04,10.6-10.71,18.64-24.24,22.82-39.84,2.22-8.28,3.2-16.59,3.07-24.76Z"/><path class="cls-2" d="M64.71,160.42c-.49-.17-.99-.28-1.49-.37-1.31-.23-3.89-.57-6.23-.28-5.22,.41-9.89,2.58-14.36,5.12-.36,.21-.72,.42-1.08,.63,7.53,4.8,15.92,8.54,25,10.98,3.91,1.05,7.82,1.81,11.73,2.32-.71-3.66-2.02-7.18-4.14-10.49-2.45-3.84-5.02-6.41-9.43-7.91Z"/><path class="cls-2" d="M94.41,152.6c.92-1.75,2.33-3.23,3.39-4.92,1.3-2.07,1.13-4.5-.28-6.32-2.52-3.24-6.48-3.3-9.49-.1-1.77,1.88-3.18,3.96-4.35,6.17-1.94,3.66-3.08,7.69-3.54,11.81-.15,1.29-.26,2.57-.28,3.86-.08,5.72,1.17,11.13,3.41,16.23,4.5,.33,8.97,.32,13.38-.02-1.87-3.23-3.43-6.61-4.3-10.36-1.33-5.75-.65-11.19,2.06-16.36Z"/></g><path class="cls-1" d="M89,51.99c-19.66,0-35.59,15.93-35.59,35.59s15.93,35.59,35.59,35.59,35.59-15.93,35.59-35.59-15.93-35.59-35.59-35.59Zm0,59.99c-13.48,0-24.4-10.92-24.4-24.4s10.92-24.4,24.4-24.4c.9,0,1.79,.06,2.66,.15-3.01,1.84-5.03,5.14-5.03,8.93,0,5.78,4.68,10.46,10.46,10.46s10.46-4.68,10.46-10.46c0-.18-.02-.35-.03-.53,3.65,4.27,5.87,9.79,5.87,15.85,0,13.48-10.92,24.4-24.4,24.4Z"/></g></g></svg>